<svg width="64" height="64" viewBox="0 0 64 64" fill="none" xmlns="http://www.w3.org/2000/svg">
  <rect x="4" y="4" width="56" height="56" rx="18" fill="#F0FDFA"/>
  <circle cx="32" cy="32" r="22" fill="white" stroke="#0D9488" stroke-width="2"/>
  <path d="M24 40C20.5 35.5 20.8 28.4 24.8 24C28.5 19.9 34.2 18.9 38.5 21.2C42.4 23.2 45 27.5 45 32C45 36.8 42.1 41.1 37.8 42.8C33.6 44.5 28.3 43.8 24 40Z" fill="#D9F99D" stroke="#0D9488" stroke-width="2.5"/>
  <path d="M28 24C30.5 28.2 33.4 35.8 31 42" stroke="#134E4A" stroke-width="2.5" stroke-linecap="round"/>
  <path d="M23.5 42.5C26.8 39.4 31.1 37.6 35.5 37.5C39 37.4 42.3 38.4 45 40.2" stroke="#EF9F27" stroke-width="2.5" stroke-linecap="round"/>
</svg>
