<svg width="64" height="64" viewBox="0 0 64 64" fill="none" xmlns="http://www.w3.org/2000/svg">
  <rect x="4" y="4" width="56" height="56" rx="18" fill="#F0FDFA"/>
  <circle cx="32" cy="32" r="22" fill="white" stroke="#0D9488" stroke-width="2"/>
  <rect x="18" y="22" width="28" height="20" rx="8" fill="#CCFBF1" stroke="#0D9488" stroke-width="2.5"/>
  <path d="M22 29C24 27.5 26 27.5 28 29C30 30.5 32 30.5 34 29C36 27.5 38 27.5 40 29C42 30.5 44 30.5 46 29" stroke="#0D9488" stroke-width="2.5" stroke-linecap="round"/>
  <path d="M22 35C24 33.5 26 33.5 28 35C30 36.5 32 36.5 34 35C36 33.5 38 33.5 40 35C42 36.5 44 36.5 46 35" stroke="#2DD4BF" stroke-width="2.5" stroke-linecap="round"/>
  <path d="M18 18V42" stroke="#134E4A" stroke-width="2.5" stroke-linecap="round"/>
  <path d="M14 23H18" stroke="#134E4A" stroke-width="2.5" stroke-linecap="round"/>
  <path d="M14 30H18" stroke="#134E4A" stroke-width="2.5" stroke-linecap="round"/>
</svg>
